# xmcd
#
# Track frame offsets: 
#        150
#        13087
#        28424
#        45411
#        60298
#        74285
#        89772
#        104884
#        120821
#        133458
#        148045
#        163457
#        179019
#        195331
#        209843
#        225405
#        242167
#        258029
#
# Disc length: 3672 seconds
#
# Revision: 3
# Processed by: cddbd v1.5.2PL0 Copyright (c) Steve Scherf et al.
# Submitted via: ExactAudioCopy v0.99pb5
#
DISCID=100e5612
DTITLE=Various Artist - 201006 PO Country Radio
DYEAR=2010
DGENRE=Country
TTITLE0=Randy Houser - I'm All About It 
TTITLE1=Rodney Atkins - Farmer's Daughter 
TTITLE2=Zac Brown Band - Free 
TTITLE3=Josh Turner - All Over Me 
TTITLE4=Colt Ford - Chicken and Biscuits 
TTITLE5=Gwen Sebastian - VIP (Barefoot Girl) 
TTITLE6=Jason Mitchell - Slow and Steady 
TTITLE7=Dierks Bentley - UP On The Ridge 
TTITLE8=Alan Jackson - Hard Hat And A Hammer 
TTITLE9=Fast Ryde - Top Down 
TTITLE10=Chuck Wicks - Hold That Thought 
TTITLE11=Easton Corbin - Roll With It 
TTITLE12=Zona Jones - Prove Me Right 
TTITLE13=Savannah Jack - I Know 
TTITLE14=LoCash Cowboys - Here Comes Summer 
TTITLE15=David Bradley - Soak It Up 
TTITLE16=Nathan Lee Jackson - Inside 
TTITLE17=Ryan Bingham - The Weary Kind @ (Theme from Crazy Heart) 
EXTD=
EXTT0=
EXTT1=
EXTT2=
EXTT3=
EXTT4=
EXTT5=
EXTT6=
EXTT7=
EXTT8=
EXTT9=
EXTT10=
EXTT11=
EXTT12=
EXTT13=
EXTT14=
EXTT15=
EXTT16=
EXTT17=
PLAYORDER=
